<svg id="ex3CM7lY1Ad1" xmlns="http://www.w3.org/2000/svg" xmlns:xlink="http://www.w3.org/1999/xlink" viewBox="0 0 600 600" shape-rendering="geometricPrecision" text-rendering="geometricPrecision" project-id="26a7b63e0a67401eb615ceb827705c39" export-id="1f2bf3c880d04169b615da6ead9558d5" cached="false"><g transform="translate(99.988499 100.001206)"><g><path d="M131,238.9c25.3,33.1,39.5,64.8,42.6,95" fill="none" stroke="#504545" stroke-width="9.9032" stroke-miterlimit="10"/><path d="M221.5,141.7c-23.4,74.5-32.6,138.2-27.6,191.2" transform="translate(1.408829 0)" fill="none" stroke="#504545" stroke-width="15.0382" stroke-miterlimit="10"/><path d="M285.5,239.6c-63.1,9.4-89.1,40.2-78.1,92.5" fill="none" stroke="#504545" stroke-width="8.0693" stroke-miterlimit="10"/><path d="M336.2,192.2c-6.8-2.5-14.9,21.6-18.9,21.6-4.3,0-13.3-14,11.1-23.7-15.1-4.2-25.7-6.1-46.6-2.8-7.1,1.1-12.8,10.2-15.5,20.5-2,8.1-9.1,15.7-12.5,14-2.9-1.5-3.8-10,14.1-32.2-74.8,21.6-31.7,132.4,41.7,103.1C296,285.2,283.9,281,279,276c-11.3-11.4,1.8-15.7,22.8,4.8c3.3,3.2,10.3,11.3,14.1,9.5c12.5-6,23.8-15.4,33.8-26.8-31.2-3.3-29.5-14.5-27.1-16.2c1.4-1,26.9,16.9,31.6,10.7c22.6-29.1,16.9-53-18-65.8v0Z" fill="#43409d"/><path d="M303.5,77.5c2.8,10.6-34.7,19.6-35.3,25.6-.6,6.5,19.4,22,37.4-13.6c4.4,23.4,5.7,39.7-2.1,70.9-2.7,10.6-17.2,18-33.2,20.6-12.5,2-25,11.6-22.9,16.9c1.8,4.6,14.6,7.2,50.6-16.9-42.9,110.4-204.9,30-150.4-77.2c9.4,21.8,14.2,40.8,21,48.9c15.7,18.6,24-.6-4.2-35.3-4.4-5.4-15.7-17.1-12.4-22.7c10.8-18.1,26.6-33.9,45.2-47.6.8,47.7,18,46.8,20.8,43.4c1.7-2-22-43-12-49.4c47.4-30,83-18.2,97.5,36.4v0Z" fill="#9582ba"/><path d="M92.5,138c8.4,1.8,1.4,31.1,5.4,33.6c4.3,2.7,22.2-5.7,3.8-30.9c17.8,5.2,29.7,10.1,48.6,26.5c6.5,5.6,6.5,18.3,2.6,30.4-3,9.4-.7,21.5,3.8,21.9c3.9.4,10.1-7.6,6.1-41.2c61.7,68.8-51.5,153.2-106.8,77.5c18.5,1.2,33.4,4.5,41.5,2.6c18.5-4.3,8.1-16.9-26-9.5-5.4,1.2-17.5,4.9-20.2.6-9-13.9-14.4-30.5-17.3-48.3c33.5,16.3,38.9,4,37.5.8-.8-1.9-37.7.1-38.6-9.1-4.3-43.4,16.4-64,59.6-54.9v0Z" fill="#beb0d5"/></g><path d="M269.8,318.1v0c0,31.3-25.6,56.9-57,56.9h-39.3c-31.3,0-57-25.6-57-56.9v0h153.3v0Z" fill="#c87733"/></g></svg>
